<mxfile host="app.diagrams.net" agent="Mozilla/5.0 (Windows NT 10.0; Win64; x64) AppleWebKit/537.36 (KHTML, like Gecko) Chrome/128.0.0.0 Safari/537.36 Edg/128.0.0.0" version="24.7.14">
  <diagram name="Page-1" id="y8z4QQ2DyJs9R-Xvpt2k">
    <mxGraphModel dx="1996" dy="2166" grid="1" gridSize="10" guides="1" tooltips="1" connect="1" arrows="1" fold="1" page="1" pageScale="1" pageWidth="850" pageHeight="1100" math="0" shadow="0">
      <root>
        <mxCell id="0" />
        <mxCell id="1" parent="0" />
        <mxCell id="S3oUTy8Q-srJzU-HS69U-1" value="" style="verticalLabelPosition=bottom;html=1;verticalAlign=top;align=center;strokeColor=none;fillColor=#00BEF2;shape=mxgraph.azure.computer;pointerEvents=1;" vertex="1" parent="1">
          <mxGeometry x="227" y="-1060" width="109" height="98" as="geometry" />
        </mxCell>
        <mxCell id="S3oUTy8Q-srJzU-HS69U-2" value="" style="sketch=0;points=[[0.015,0.015,0],[0.985,0.015,0],[0.985,0.985,0],[0.015,0.985,0],[0.25,0,0],[0.5,0,0],[0.75,0,0],[1,0.25,0],[1,0.5,0],[1,0.75,0],[0.75,1,0],[0.5,1,0],[0.25,1,0],[0,0.75,0],[0,0.5,0],[0,0.25,0]];verticalLabelPosition=bottom;html=1;verticalAlign=top;aspect=fixed;align=center;pointerEvents=1;shape=mxgraph.cisco19.rect;prIcon=l2_switch;fillColor=#FAFAFA;strokeColor=#005073;" vertex="1" parent="1">
          <mxGeometry x="661.25" y="-1058" width="96" height="96" as="geometry" />
        </mxCell>
        <mxCell id="S3oUTy8Q-srJzU-HS69U-3" value="" style="sketch=0;points=[[0.015,0.015,0],[0.985,0.015,0],[0.985,0.985,0],[0.015,0.985,0],[0.25,0,0],[0.5,0,0],[0.75,0,0],[1,0.25,0],[1,0.5,0],[1,0.75,0],[0.75,1,0],[0.5,1,0],[0.25,1,0],[0,0.75,0],[0,0.5,0],[0,0.25,0]];verticalLabelPosition=bottom;html=1;verticalAlign=top;aspect=fixed;align=center;pointerEvents=1;shape=mxgraph.cisco19.rect;prIcon=ise;fillColor=#FAFAFA;strokeColor=#005073;" vertex="1" parent="1">
          <mxGeometry x="1114" y="-1060" width="98" height="98" as="geometry" />
        </mxCell>
        <mxCell id="S3oUTy8Q-srJzU-HS69U-4" value="" style="verticalLabelPosition=bottom;html=1;verticalAlign=top;align=center;strokeColor=none;fillColor=#00BEF2;shape=mxgraph.azure.computer;pointerEvents=1;" vertex="1" parent="1">
          <mxGeometry x="227" y="-313" width="109" height="98" as="geometry" />
        </mxCell>
        <mxCell id="S3oUTy8Q-srJzU-HS69U-5" value="" style="sketch=0;points=[[0.015,0.015,0],[0.985,0.015,0],[0.985,0.985,0],[0.015,0.985,0],[0.25,0,0],[0.5,0,0],[0.75,0,0],[1,0.25,0],[1,0.5,0],[1,0.75,0],[0.75,1,0],[0.5,1,0],[0.25,1,0],[0,0.75,0],[0,0.5,0],[0,0.25,0]];verticalLabelPosition=bottom;html=1;verticalAlign=top;aspect=fixed;align=center;pointerEvents=1;shape=mxgraph.cisco19.rect;prIcon=l2_switch;fillColor=#FAFAFA;strokeColor=#005073;" vertex="1" parent="1">
          <mxGeometry x="666.25" y="-313" width="96" height="96" as="geometry" />
        </mxCell>
        <mxCell id="S3oUTy8Q-srJzU-HS69U-6" value="" style="sketch=0;points=[[0.015,0.015,0],[0.985,0.015,0],[0.985,0.985,0],[0.015,0.985,0],[0.25,0,0],[0.5,0,0],[0.75,0,0],[1,0.25,0],[1,0.5,0],[1,0.75,0],[0.75,1,0],[0.5,1,0],[0.25,1,0],[0,0.75,0],[0,0.5,0],[0,0.25,0]];verticalLabelPosition=bottom;html=1;verticalAlign=top;aspect=fixed;align=center;pointerEvents=1;shape=mxgraph.cisco19.rect;prIcon=ise;fillColor=#FAFAFA;strokeColor=#005073;" vertex="1" parent="1">
          <mxGeometry x="1114" y="-313" width="98" height="98" as="geometry" />
        </mxCell>
        <mxCell id="S3oUTy8Q-srJzU-HS69U-7" value="" style="endArrow=none;html=1;rounded=0;entryX=0.5;entryY=1;entryDx=0;entryDy=0;entryPerimeter=0;exitX=0.5;exitY=0;exitDx=0;exitDy=0;exitPerimeter=0;" edge="1" parent="1" source="S3oUTy8Q-srJzU-HS69U-5" target="S3oUTy8Q-srJzU-HS69U-2">
          <mxGeometry width="50" height="50" relative="1" as="geometry">
            <mxPoint x="807" y="-626" as="sourcePoint" />
            <mxPoint x="857" y="-676" as="targetPoint" />
          </mxGeometry>
        </mxCell>
        <mxCell id="S3oUTy8Q-srJzU-HS69U-8" value="" style="endArrow=none;html=1;rounded=0;exitX=0.5;exitY=0;exitDx=0;exitDy=0;exitPerimeter=0;" edge="1" parent="1" source="S3oUTy8Q-srJzU-HS69U-6" target="S3oUTy8Q-srJzU-HS69U-3">
          <mxGeometry width="50" height="50" relative="1" as="geometry">
            <mxPoint x="1150" y="-282" as="sourcePoint" />
            <mxPoint x="1150" y="-889" as="targetPoint" />
          </mxGeometry>
        </mxCell>
        <mxCell id="S3oUTy8Q-srJzU-HS69U-9" value="" style="endArrow=none;html=1;rounded=0;exitX=0.5;exitY=0;exitDx=0;exitDy=0;exitPerimeter=0;" edge="1" parent="1" source="S3oUTy8Q-srJzU-HS69U-4" target="S3oUTy8Q-srJzU-HS69U-1">
          <mxGeometry width="50" height="50" relative="1" as="geometry">
            <mxPoint x="341" y="-257" as="sourcePoint" />
            <mxPoint x="341" y="-864" as="targetPoint" />
          </mxGeometry>
        </mxCell>
        <mxCell id="S3oUTy8Q-srJzU-HS69U-10" value="" style="endArrow=classic;html=1;rounded=0;flowAnimation=1;shadow=1;fillColor=#fa6800;strokeColor=#C73500;curved=0;strokeWidth=3;" edge="1" parent="1">
          <mxGeometry relative="1" as="geometry">
            <mxPoint x="700" y="-920" as="sourcePoint" />
            <mxPoint x="280" y="-920" as="targetPoint" />
          </mxGeometry>
        </mxCell>
        <mxCell id="S3oUTy8Q-srJzU-HS69U-11" value="Label" style="edgeLabel;resizable=0;html=1;;align=center;verticalAlign=middle;" connectable="0" vertex="1" parent="S3oUTy8Q-srJzU-HS69U-10">
          <mxGeometry relative="1" as="geometry" />
        </mxCell>
        <mxCell id="S3oUTy8Q-srJzU-HS69U-12" value="&lt;b&gt;&lt;font style=&quot;font-size: 16px;&quot;&gt;EAP-Request/Identity&lt;/font&gt;&lt;/b&gt;" style="edgeLabel;html=1;align=center;verticalAlign=middle;resizable=0;points=[];" vertex="1" connectable="0" parent="S3oUTy8Q-srJzU-HS69U-10">
          <mxGeometry x="-0.0071" y="3" relative="1" as="geometry">
            <mxPoint as="offset" />
          </mxGeometry>
        </mxCell>
        <mxCell id="S3oUTy8Q-srJzU-HS69U-13" value="" style="endArrow=classic;html=1;rounded=0;flowAnimation=1;shadow=1;fillColor=#fa6800;strokeColor=#C73500;strokeWidth=3;" edge="1" parent="1">
          <mxGeometry relative="1" as="geometry">
            <mxPoint x="280" y="-880" as="sourcePoint" />
            <mxPoint x="700" y="-880" as="targetPoint" />
          </mxGeometry>
        </mxCell>
        <mxCell id="S3oUTy8Q-srJzU-HS69U-14" value="Label" style="edgeLabel;resizable=0;html=1;;align=center;verticalAlign=middle;" connectable="0" vertex="1" parent="S3oUTy8Q-srJzU-HS69U-13">
          <mxGeometry relative="1" as="geometry" />
        </mxCell>
        <mxCell id="S3oUTy8Q-srJzU-HS69U-15" value="&lt;b&gt;&lt;font style=&quot;font-size: 16px;&quot;&gt;EAP-Response/Identity&lt;/font&gt;&lt;/b&gt;" style="edgeLabel;html=1;align=center;verticalAlign=middle;resizable=0;points=[];" vertex="1" connectable="0" parent="S3oUTy8Q-srJzU-HS69U-13">
          <mxGeometry x="-0.0071" y="3" relative="1" as="geometry">
            <mxPoint as="offset" />
          </mxGeometry>
        </mxCell>
        <mxCell id="S3oUTy8Q-srJzU-HS69U-16" value="" style="endArrow=classic;html=1;rounded=0;flowAnimation=1;shadow=1;fillColor=#6d8764;strokeColor=#3A5431;strokeWidth=3;" edge="1" parent="1">
          <mxGeometry relative="1" as="geometry">
            <mxPoint x="712" y="-854" as="sourcePoint" />
            <mxPoint x="1155" y="-857" as="targetPoint" />
          </mxGeometry>
        </mxCell>
        <mxCell id="S3oUTy8Q-srJzU-HS69U-17" value="Label" style="edgeLabel;resizable=0;html=1;;align=center;verticalAlign=middle;" connectable="0" vertex="1" parent="S3oUTy8Q-srJzU-HS69U-16">
          <mxGeometry relative="1" as="geometry" />
        </mxCell>
        <mxCell id="S3oUTy8Q-srJzU-HS69U-18" value="&lt;font size=&quot;1&quot; style=&quot;&quot;&gt;&lt;b style=&quot;font-size: 16px;&quot;&gt;Radius Access-Reques&lt;/b&gt;&lt;/font&gt;" style="edgeLabel;html=1;align=center;verticalAlign=middle;resizable=0;points=[];" vertex="1" connectable="0" parent="S3oUTy8Q-srJzU-HS69U-16">
          <mxGeometry x="-0.0071" y="3" relative="1" as="geometry">
            <mxPoint as="offset" />
          </mxGeometry>
        </mxCell>
        <mxCell id="S3oUTy8Q-srJzU-HS69U-19" value="" style="endArrow=classic;html=1;rounded=0;flowAnimation=1;shadow=1;fontSize=13;fontStyle=1;fillColor=#fa6800;strokeColor=#C73500;strokeWidth=3;" edge="1" parent="1">
          <mxGeometry relative="1" as="geometry">
            <mxPoint x="280" y="-760" as="sourcePoint" />
            <mxPoint x="1153" y="-760" as="targetPoint" />
          </mxGeometry>
        </mxCell>
        <mxCell id="S3oUTy8Q-srJzU-HS69U-20" value="Label" style="edgeLabel;resizable=0;html=1;;align=center;verticalAlign=middle;" connectable="0" vertex="1" parent="S3oUTy8Q-srJzU-HS69U-19">
          <mxGeometry relative="1" as="geometry" />
        </mxCell>
        <mxCell id="S3oUTy8Q-srJzU-HS69U-21" value="&lt;font style=&quot;font-size: 16px;&quot;&gt;Handshake :&amp;nbsp; &amp;nbsp;Client Hello&lt;/font&gt;" style="edgeLabel;html=1;align=center;verticalAlign=middle;resizable=0;points=[];fontStyle=1;fontSize=13;" vertex="1" connectable="0" parent="S3oUTy8Q-srJzU-HS69U-19">
          <mxGeometry x="-0.0071" y="3" relative="1" as="geometry">
            <mxPoint x="7" as="offset" />
          </mxGeometry>
        </mxCell>
        <mxCell id="S3oUTy8Q-srJzU-HS69U-22" value="" style="endArrow=classic;html=1;rounded=0;flowAnimation=1;shadow=1;fontSize=13;fontStyle=1;fillColor=#b1ddf0;strokeColor=#10739e;strokeWidth=3;" edge="1" parent="1">
          <mxGeometry relative="1" as="geometry">
            <mxPoint x="1160" y="-690" as="sourcePoint" />
            <mxPoint x="290" y="-690" as="targetPoint" />
          </mxGeometry>
        </mxCell>
        <mxCell id="S3oUTy8Q-srJzU-HS69U-23" value="Label" style="edgeLabel;resizable=0;html=1;;align=center;verticalAlign=middle;" connectable="0" vertex="1" parent="S3oUTy8Q-srJzU-HS69U-22">
          <mxGeometry relative="1" as="geometry" />
        </mxCell>
        <mxCell id="S3oUTy8Q-srJzU-HS69U-24" value="&lt;font style=&quot;font-size: 16px;&quot;&gt;Handshake : Server Certificate, Key, Cipher&lt;/font&gt;" style="edgeLabel;html=1;align=center;verticalAlign=middle;resizable=0;points=[];fontStyle=1;fontSize=13;" vertex="1" connectable="0" parent="S3oUTy8Q-srJzU-HS69U-22">
          <mxGeometry x="-0.0071" y="3" relative="1" as="geometry">
            <mxPoint x="2" as="offset" />
          </mxGeometry>
        </mxCell>
        <mxCell id="S3oUTy8Q-srJzU-HS69U-25" value="" style="shape=flexArrow;endArrow=classic;startArrow=classic;html=1;rounded=0;flowAnimation=0;shadow=1;fillColor=#d80073;strokeColor=#A50040;" edge="1" parent="1">
          <mxGeometry width="100" height="100" relative="1" as="geometry">
            <mxPoint x="285" y="-570" as="sourcePoint" />
            <mxPoint x="1156" y="-568" as="targetPoint" />
          </mxGeometry>
        </mxCell>
        <mxCell id="S3oUTy8Q-srJzU-HS69U-26" value="&lt;font style=&quot;font-size: 15px; background-color: rgb(61, 255, 100);&quot;&gt;TLS Tunnel Established&lt;/font&gt;" style="edgeLabel;html=1;align=center;verticalAlign=middle;resizable=0;points=[];fontStyle=1" vertex="1" connectable="0" parent="S3oUTy8Q-srJzU-HS69U-25">
          <mxGeometry x="0.0486" y="-5" relative="1" as="geometry">
            <mxPoint x="-28" y="-6" as="offset" />
          </mxGeometry>
        </mxCell>
        <mxCell id="S3oUTy8Q-srJzU-HS69U-27" value="" style="endArrow=classic;html=1;rounded=0;flowAnimation=1;shadow=1;fontSize=13;fontStyle=1;fillColor=#fa6800;strokeColor=#C73500;strokeWidth=3;" edge="1" parent="1">
          <mxGeometry relative="1" as="geometry">
            <mxPoint x="1163" y="-800" as="sourcePoint" />
            <mxPoint x="290" y="-800" as="targetPoint" />
          </mxGeometry>
        </mxCell>
        <mxCell id="S3oUTy8Q-srJzU-HS69U-28" value="Label" style="edgeLabel;resizable=0;html=1;;align=center;verticalAlign=middle;" connectable="0" vertex="1" parent="S3oUTy8Q-srJzU-HS69U-27">
          <mxGeometry relative="1" as="geometry" />
        </mxCell>
        <mxCell id="S3oUTy8Q-srJzU-HS69U-29" value="&lt;b&gt;&lt;font style=&quot;font-size: 16px;&quot;&gt;EAP-Request : EAP-TLS (start)&lt;/font&gt;&lt;/b&gt;" style="edgeLabel;html=1;align=center;verticalAlign=middle;resizable=0;points=[];" vertex="1" connectable="0" parent="S3oUTy8Q-srJzU-HS69U-27">
          <mxGeometry x="-0.0071" y="3" relative="1" as="geometry">
            <mxPoint x="-10" as="offset" />
          </mxGeometry>
        </mxCell>
        <mxCell id="S3oUTy8Q-srJzU-HS69U-30" value="" style="rounded=1;whiteSpace=wrap;html=1;fillColor=none;strokeWidth=3;strokeColor=#d79b00;glass=1;gradientColor=#ffa500;" vertex="1" parent="1">
          <mxGeometry x="238" y="-830" width="942" height="320" as="geometry" />
        </mxCell>
        <mxCell id="S3oUTy8Q-srJzU-HS69U-31" value="&lt;b&gt;&lt;font style=&quot;font-size: 17px;&quot;&gt;EAP-TLS&lt;/font&gt;&lt;/b&gt;" style="text;html=1;align=center;verticalAlign=middle;resizable=0;points=[];autosize=1;strokeColor=none;fillColor=none;labelBackgroundColor=default;" vertex="1" parent="1">
          <mxGeometry x="663.5" y="-520" width="91" height="32" as="geometry" />
        </mxCell>
        <mxCell id="S3oUTy8Q-srJzU-HS69U-32" value="&lt;b&gt;&lt;font style=&quot;font-size: 17px;&quot;&gt;EAP-TLS&lt;/font&gt;&lt;/b&gt;" style="text;html=1;align=center;verticalAlign=middle;resizable=0;points=[];autosize=1;strokeColor=none;fillColor=none;labelBackgroundColor=default;" vertex="1" parent="1">
          <mxGeometry x="666.25" y="-843" width="91" height="32" as="geometry" />
        </mxCell>
        <mxCell id="S3oUTy8Q-srJzU-HS69U-34" value="" style="endArrow=classic;html=1;rounded=0;flowAnimation=1;shadow=1;fontSize=13;fontStyle=1;fillColor=#fa6800;strokeColor=#C73500;strokeWidth=3;" edge="1" parent="1">
          <mxGeometry relative="1" as="geometry">
            <mxPoint x="305" y="-650" as="sourcePoint" />
            <mxPoint x="1165" y="-650" as="targetPoint" />
          </mxGeometry>
        </mxCell>
        <mxCell id="S3oUTy8Q-srJzU-HS69U-35" value="Label" style="edgeLabel;resizable=0;html=1;;align=center;verticalAlign=middle;" connectable="0" vertex="1" parent="S3oUTy8Q-srJzU-HS69U-34">
          <mxGeometry relative="1" as="geometry" />
        </mxCell>
        <mxCell id="S3oUTy8Q-srJzU-HS69U-36" value="&lt;font style=&quot;font-size: 16px;&quot;&gt;Handshake : Client Certificate, Key Exchange, Cipher&lt;/font&gt;" style="edgeLabel;html=1;align=center;verticalAlign=middle;resizable=0;points=[];fontStyle=1;fontSize=13;" vertex="1" connectable="0" parent="S3oUTy8Q-srJzU-HS69U-34">
          <mxGeometry x="-0.0071" y="3" relative="1" as="geometry">
            <mxPoint x="-12" y="3" as="offset" />
          </mxGeometry>
        </mxCell>
        <mxCell id="S3oUTy8Q-srJzU-HS69U-40" value="" style="endArrow=classic;html=1;rounded=0;flowAnimation=1;shadow=1;fontSize=13;fontStyle=1;fillColor=#b1ddf0;strokeColor=#10739e;strokeWidth=3;" edge="1" parent="1">
          <mxGeometry relative="1" as="geometry">
            <mxPoint x="1150" y="-730" as="sourcePoint" />
            <mxPoint x="280" y="-730" as="targetPoint" />
          </mxGeometry>
        </mxCell>
        <mxCell id="S3oUTy8Q-srJzU-HS69U-41" value="Label" style="edgeLabel;resizable=0;html=1;;align=center;verticalAlign=middle;" connectable="0" vertex="1" parent="S3oUTy8Q-srJzU-HS69U-40">
          <mxGeometry relative="1" as="geometry" />
        </mxCell>
        <mxCell id="S3oUTy8Q-srJzU-HS69U-42" value="&lt;font style=&quot;font-size: 16px;&quot;&gt;Handshake : Server Hello&lt;/font&gt;" style="edgeLabel;html=1;align=center;verticalAlign=middle;resizable=0;points=[];fontStyle=1;fontSize=13;" vertex="1" connectable="0" parent="S3oUTy8Q-srJzU-HS69U-40">
          <mxGeometry x="-0.0071" y="3" relative="1" as="geometry">
            <mxPoint as="offset" />
          </mxGeometry>
        </mxCell>
        <mxCell id="S3oUTy8Q-srJzU-HS69U-46" value="" style="endArrow=classic;html=1;rounded=0;flowAnimation=1;shadow=1;fontSize=13;fontStyle=1;fillColor=#b1ddf0;strokeColor=#10739e;strokeWidth=3;" edge="1" parent="1">
          <mxGeometry relative="1" as="geometry">
            <mxPoint x="1160" y="-610" as="sourcePoint" />
            <mxPoint x="290" y="-610" as="targetPoint" />
          </mxGeometry>
        </mxCell>
        <mxCell id="S3oUTy8Q-srJzU-HS69U-47" value="Label" style="edgeLabel;resizable=0;html=1;;align=center;verticalAlign=middle;" connectable="0" vertex="1" parent="S3oUTy8Q-srJzU-HS69U-46">
          <mxGeometry relative="1" as="geometry" />
        </mxCell>
        <mxCell id="S3oUTy8Q-srJzU-HS69U-48" value="&lt;font style=&quot;font-size: 16px;&quot;&gt;EAP Request : Cipher, EAP-TLS (Finish)&lt;/font&gt;" style="edgeLabel;html=1;align=center;verticalAlign=middle;resizable=0;points=[];fontStyle=1;fontSize=13;" vertex="1" connectable="0" parent="S3oUTy8Q-srJzU-HS69U-46">
          <mxGeometry x="-0.0071" y="3" relative="1" as="geometry">
            <mxPoint x="2" as="offset" />
          </mxGeometry>
        </mxCell>
        <mxCell id="S3oUTy8Q-srJzU-HS69U-50" value="Text" style="edgeLabel;html=1;align=center;verticalAlign=middle;resizable=0;points=[];" vertex="1" connectable="0" parent="S3oUTy8Q-srJzU-HS69U-46">
          <mxGeometry x="-0.5425" y="-1" relative="1" as="geometry">
            <mxPoint as="offset" />
          </mxGeometry>
        </mxCell>
        <mxCell id="S3oUTy8Q-srJzU-HS69U-53" value="&lt;font style=&quot;font-size: 14px;&quot;&gt;&lt;i style=&quot;font-size: 16px;&quot;&gt;&lt;b&gt;Server certificate validation &lt;br&gt;on Client side&amp;nbsp;&lt;/b&gt;&lt;/i&gt;&lt;/font&gt;" style="text;html=1;align=center;verticalAlign=middle;resizable=0;points=[];autosize=1;strokeColor=#d6b656;fillColor=#fff2cc;shadow=1;" vertex="1" parent="1">
          <mxGeometry x="50" y="-710" width="230" height="50" as="geometry" />
        </mxCell>
        <mxCell id="S3oUTy8Q-srJzU-HS69U-54" value="&lt;i style=&quot;forced-color-adjust: none; color: rgb(0, 0, 0); font-family: Helvetica; font-size: 16px; font-variant-ligatures: normal; font-variant-caps: normal; font-weight: 400; letter-spacing: normal; orphans: 2; text-align: center; text-indent: 0px; text-transform: none; widows: 2; word-spacing: 0px; -webkit-text-stroke-width: 0px; white-space: nowrap; text-decoration-thickness: initial; text-decoration-style: initial; text-decoration-color: initial;&quot;&gt;&lt;b style=&quot;forced-color-adjust: none;&quot;&gt;Client certificate validation&lt;br style=&quot;forced-color-adjust: none;&quot;&gt;on Server side&amp;nbsp;&lt;/b&gt;&lt;/i&gt;" style="text;whiteSpace=wrap;html=1;fillColor=#d5e8d4;strokeColor=#82b366;labelBackgroundColor=none;labelBorderColor=none;rounded=0;shadow=1;" vertex="1" parent="1">
          <mxGeometry x="1180" y="-660" width="215" height="50" as="geometry" />
        </mxCell>
        <mxCell id="S3oUTy8Q-srJzU-HS69U-59" value="" style="endArrow=classic;html=1;rounded=0;flowAnimation=1;shadow=1;fillColor=#b1ddf0;strokeColor=#10739e;curved=0;strokeWidth=3;" edge="1" parent="1">
          <mxGeometry relative="1" as="geometry">
            <mxPoint x="1140" y="-460" as="sourcePoint" />
            <mxPoint x="720" y="-460" as="targetPoint" />
          </mxGeometry>
        </mxCell>
        <mxCell id="S3oUTy8Q-srJzU-HS69U-60" value="Label" style="edgeLabel;resizable=0;html=1;;align=center;verticalAlign=middle;" connectable="0" vertex="1" parent="S3oUTy8Q-srJzU-HS69U-59">
          <mxGeometry relative="1" as="geometry" />
        </mxCell>
        <mxCell id="S3oUTy8Q-srJzU-HS69U-61" value="&lt;b&gt;&lt;font style=&quot;font-size: 17px;&quot;&gt;Radius access-accept/access-reject&lt;/font&gt;&lt;/b&gt;" style="edgeLabel;html=1;align=center;verticalAlign=middle;resizable=0;points=[];" vertex="1" connectable="0" parent="S3oUTy8Q-srJzU-HS69U-59">
          <mxGeometry x="-0.0071" y="3" relative="1" as="geometry">
            <mxPoint as="offset" />
          </mxGeometry>
        </mxCell>
        <mxCell id="S3oUTy8Q-srJzU-HS69U-62" value="" style="endArrow=classic;html=1;rounded=0;flowAnimation=1;shadow=1;fillColor=#fa6800;strokeColor=#C73500;curved=0;strokeWidth=3;" edge="1" parent="1">
          <mxGeometry relative="1" as="geometry">
            <mxPoint x="710" y="-430" as="sourcePoint" />
            <mxPoint x="290" y="-430" as="targetPoint" />
          </mxGeometry>
        </mxCell>
        <mxCell id="S3oUTy8Q-srJzU-HS69U-63" value="Label" style="edgeLabel;resizable=0;html=1;;align=center;verticalAlign=middle;" connectable="0" vertex="1" parent="S3oUTy8Q-srJzU-HS69U-62">
          <mxGeometry relative="1" as="geometry" />
        </mxCell>
        <mxCell id="S3oUTy8Q-srJzU-HS69U-64" value="&lt;b&gt;&lt;font style=&quot;font-size: 17px;&quot;&gt;EAP Success&lt;/font&gt;&lt;/b&gt;" style="edgeLabel;html=1;align=center;verticalAlign=middle;resizable=0;points=[];" vertex="1" connectable="0" parent="S3oUTy8Q-srJzU-HS69U-62">
          <mxGeometry x="-0.0071" y="3" relative="1" as="geometry">
            <mxPoint as="offset" />
          </mxGeometry>
        </mxCell>
      </root>
    </mxGraphModel>
  </diagram>
</mxfile>
